# AST/ASF file generated using VICON BodyLanguage
# -----------------------------------------------
:version 1.10
:name VICON
:units
  mass 1.0
  length 0.45
  angle deg
:documentation
   .ast/.asf automatically generated from VICON data using
   VICON BodyBuilder and BodyLanguage model FoxedUp or BRILLIANT.MOD
:root
   order TX TY TZ RX RY RZ
   axis XYZ
   position 0 0 0  
   orientation 0 0 0 
:bonedata
  begin
     id 1 
     name lhipjoint
     direction 0.521689 -0.742065 0.420928 
     length 2.47002 
     axis 0 0 0  XYZ
  end
  begin
     id 2 
     name lfemur
     direction 0.34202 -0.939693 0  
     length 7.24654  
     axis 0 0 20  XYZ
    dof rx ry rz
    limits (-160.0 20.0)
           (-70.0 70.0)
           (-60.0 70.0)
  end
  begin
     id 3 
     name ltibia
     direction 0.34202 -0.939693 0   
     length 8.04849   
     axis 0 0 20   XYZ
    dof rx
    limits (-10.0 170.0)
  end
  begin
     id 4 
     name lfoot
     direction 0.0745411 -0.2048 0.975961   
     length 1.72367   
     axis -90 7.62852e-016 20   XYZ
    dof rx rz
    limits (-45.0 90.0)
           (-70.0 20.0)
  end
  begin
     id 5 
     name ltoes
     direction 1.53556e-011 -4.21901e-011 1   
     length 0.87311   
     axis -90 7.62852e-016 20   XYZ
    dof rx
    limits (-90.0 20.0)
  end
  begin
     id 6 
     name rhipjoint
     direction -0.52849 -0.738415 0.418857   
     length 2.48223  
     axis 0 0 0  XYZ 
  end
  begin
     id 7 
     name rfemur
     direction -0.34202 -0.939693 0   
     length 7.15571   
     axis 0 0 -20   XYZ
    dof rx ry rz
    limits (-160.0 20.0)
           (-70.0 70.0)
           (-70.0 60.0)
  end
  begin
     id 8 
     name rtibia
     direction -0.34202 -0.939693 0   
     length 7.81659   
     axis 0 0 -20   XYZ
    dof rx
    limits (-10.0 170.0)
 end
 begin
     id 9 
     name rfoot
     direction -0.0917348 -0.252039 0.963359   
     length 1.84382  
     axis -90 -7.62852e-016 -20   XYZ
    dof rx rz
    limits (-45.0 90.0)
           (-20.0 70.0)
  end
  begin
     id 10 
     name rtoes
     direction -1.53551e-011 -4.21879e-011 1   
     length 0.927771   
     axis -90 -7.62852e-016 -20   XYZ
    dof rx
    limits (-90.0 20.0)
  end
  begin
     id 11 
     name lowerback
     direction 0.00583058 0.999822 0.0179296   
     length 2.1429   
     axis 0 0 0   XYZ
    dof rx ry rz
    limits (-20.0 45.0)
           (-30.0 30.0)
           (-30.0 30.0)
  end
  begin
     id 12 
     name upperback
     direction -0.0137999 0.999752 -0.0175071   
     length 2.14252   
     axis 0 0 0   XYZ
    dof rx ry rz
    limits (-20.0 45.0)
           (-30.0 30.0)
           (-30.0 30.0)
  end
  begin
     id 13 
     name thorax
     direction -0.0158036 0.99955 -0.0254909   
     length 2.1383   
     axis 0 0 0   XYZ
    dof rx ry rz
    limits (-20.0 45.0)
           (-30.0 30.0)
           (-30.0 30.0)
  end
  begin
     id 14 
     name lowerneck
     direction -0.0101179 0.999403 -0.0330262   
     length 1.65808   
     axis 0 0 0   XYZ
    dof rx ry rz
    limits (-20.0 45.0)
           (-30.0 30.0)
           (-30.0 30.0)
  end
  begin
     id 15 
     name upperneck
     direction 0.0497734 0.995978 -0.074501   
     length 1.5897   
     axis 0 0 0   XYZ
    dof rx ry rz
    limits (-20.0 45.0)
           (-30.0 30.0)
           (-30.0 30.0)
  end
  begin
     id 16
     name head
     direction 0.0189524 0.999519 -0.0245438  
     length 1.74024  
     axis 0 0 0   XYZ
    dof rx ry rz
    limits (-20.0 45.0)
           (-30.0 30.0)
           (-30.0 30.0)
  end
  begin
     id 17 
     name lclavicle
     direction 0.945604 0.324422 0.0241537  
     length 3.59089  
     axis 0 0 0   XYZ
    dof ry rz
    limits (-20.0 10.0)
           (0.0 20.0)
  end
  begin
     id 18 
     name lhumerus
     direction 1 -4.48964e-011 -2.63524e-027   
     length 5.2391   
     axis 180 -30 -90   XYZ
    dof rx ry rz
    limits (-60.0 90.0)
           (-90.0 90.0)
           (-90.0 90.0)
  end
  begin
     id 19
     name lradius
     direction 1 -4.48969e-011 3.86978e-028   
     length 3.31467   
     axis 180 -30 -90   XYZ
    dof rx
    limits (-10.0 170.0)
  end
  begin
     id 20
     name lwrist
     direction 1 -4.48963e-011 7.20928e-028   
     length 1.65734   
     axis -5.52449e-016 90 90   XYZ
    dof ry
    limits (-180.0 0.0)
 end
  begin
     id 21 
     name lhand
     direction 1 -4.48964e-011 1.44186e-027   
     length 0.9659   
     axis -9.20027e-016 90 90   XYZ
    dof rx rz
    limits (-90.0 90.0)
           (-45.0 45.0)
  end
  begin
     id 22 
     name lfingers
     direction 1 -4.48965e-011 2.88371e-027   
     length 0.778733   
     axis -1.84005e-015 90 90   XYZ
    dof rx
    limits (0.0 90.0)
  end
  begin
     id 23
     name lthumb
     direction 0.707107 -6.34931e-011 0.707107   
     length 1.11811   
     axis -90 45 2.85299e-015   XYZ
    dof rx rz
    limits (-45.0 45.0)
           (-45.0 45.0)
  end
  begin
     id 24 
     name rclavicle
     direction -0.923762 0.370785 0.0958234   
     length 3.54196  
     axis 0 0 0   XYZ 
    dof ry rz
    limits (-10.0 20.0)
           (-20.0 0.0)
  end
  begin
     id 25 
     name rhumerus
     direction -1 -4.48966e-011 1.18702e-017  
     length 5.30252   
     axis 180 30 90   XYZ
    dof rx ry rz
    limits (-90.0 60.0)
           (-90.0 90.0)
           (-90.0 90.0)
  end
  begin
     id 26 
     name rradius
     direction -1 -4.48966e-011 4.46736e-027   
     length 3.67875   
     axis 180 30 90   XYZ
    dof rx
    limits (-10.0 170.0)
  end
  begin
     id 27 
     name rwrist
     direction -1 -4.48966e-011 7.20928e-028   
     length 1.83937   
     axis -5.52449e-016 -90 -90   XYZ
    dof ry
    limits (-180.0 0.0)
  end
  begin
     id 28
     name rhand
     direction -1 -4.48973e-011 1.44186e-027   
     length 0.594811   
     axis -9.20027e-016 -90 -90   XYZ
    dof rx rz
    limits (-90.0 90.0)
           (-45.0 45.0)
  end
  begin
     id 29
     name rfingers
     direction -1 -4.48963e-011 2.88371e-027   
     length 0.479552   
     axis -1.84005e-015 -90 -90   XYZ
    dof rx
    limits (0.0 90.0)
  end
  begin
     id 30
     name rthumb
     direction -0.707107 -6.34932e-011 0.707107   
     length 0.688544   
     axis -90 -45 -2.85299e-015   XYZ
    dof rx rz
    limits (-45.0 45.0)
           (-45.0 45.0)
  end
:hierarchy
  begin
    root lhipjoint rhipjoint lowerback
    lhipjoint lfemur
    lfemur ltibia
    ltibia lfoot
    lfoot ltoes
    rhipjoint rfemur
    rfemur rtibia
    rtibia rfoot
    rfoot rtoes
    lowerback upperback
    upperback thorax
    thorax lowerneck lclavicle rclavicle
    lowerneck upperneck
    upperneck head
    lclavicle lhumerus
    lhumerus lradius
    lradius lwrist
    lwrist lhand lthumb
    lhand lfingers
    rclavicle rhumerus
    rhumerus rradius
    rradius rwrist
    rwrist rhand rthumb
    rhand rfingers
  end

#!OML:ASF E:\acrobat2\Project_11_07_03\Capture day 1\Session 1\Acrobat.ASF
:FULLY-SPECIFIED
:DEGREES
556
root 12.6646 20.942 3.08218 -93.2151 -5.92408 -178.88
lowerback 31.6557 0.666881 -1.39103
upperback 8.05904 -0.857968 -0.608537
thorax -8.18399 -0.77854 0.495268
lowerneck -2.18632 -0.255363 -6.0315
upperneck -16.704 -0.164873 6.87609
head -4.60985 -0.499529 3.1839
rclavicle 4.07509e-014 2.96189e-014
rhumerus 46.3263 8.1577 -57.1715
rradius 28.9882
rwrist -20.4005
rhand -30.2842 -40.1235
rfingers 7.12502
rthumb -3.59191 -430.073
lclavicle 4.07509e-014 2.96189e-014
lhumerus 51.6317 -11.6723 24.7362
lradius 22.7386
lwrist 9.07381
lhand -39.92 -26.1157
lfingers 7.12502
lthumb -12.8907 3.46614
rfemur -63.2653 2.56604 8.27158
rtibia 9.81094
rfoot -14.5562 -29.9575
rtoes 2.12878
lfemur 115.407 175.106 175.932
ltibia 8.76393
lfoot -10.1785 12.2056
ltoes 41.6739
557
root 12.659 21.1762 2.88544 -90.1273 -5.7705 -178.784
lowerback 31.0484 0.780715 -1.6307
upperback 7.71381 -0.682899 -0.79744
thorax -8.296 -0.653393 0.348665
lowerneck -1.29264 -0.315104 -5.833
upperneck -19.0382 -0.239244 7.06899
head -5.47515 -0.666176 3.27287
rclavicle 1.90833e-014 -5.06901e-015
rhumerus 48.3743 6.25564 -56.5952
rradius 29.229
rwrist -20.3251
rhand -30.7347 -40.3465
rfingers 7.12502
rthumb -4.02697 -430.288
lclavicle 1.90833e-014 -5.06901e-015
lhumerus 52.8638 -9.09982 25.2488
lradius 22.8031
lwrist 8.78529
lhand -40.1872 -26.0682
lfingers 7.12502
lthumb -13.1482 3.49728
rfemur -66.2919 1.5137 7.70821
rtibia 12.782
rfoot -13.014 -28.6659
rtoes 0.935237
lfemur 112.828 174.16 176.103
ltibia 10.8895
lfoot -10.7639 11.8171
ltoes 41.9146
558
root 12.6542 21.3938 2.70253 -86.9226 -5.6175 -178.662
lowerback 30.1709 0.8894 -1.89258
upperback 7.3295 -0.505815 -0.97945
thorax -8.31863 -0.526805 0.222696
lowerneck -0.473515 -0.380651 -5.61766
upperneck -21.1701 -0.315492 7.1755
head -6.28272 -0.831234 3.33916
rclavicle -7.25564e-015 1.42628e-014
rhumerus 50.5044 4.18085 -56.0554
rradius 29.4488
rwrist -19.7482
rhand -31.0285 -40.5282
rfingers 7.12502
rthumb -4.31063 -430.464
lclavicle -7.25564e-015 1.42628e-014
lhumerus 54.2643 -6.44128 25.8925
lradius 22.8823
lwrist 8.53724
lhand -40.5226 -26.1216
lfingers 7.12502
lthumb -13.4715 3.4227
rfemur -69.9135 -0.76912 10.2105
rtibia 17.0654
rfoot -9.21115 -24.2794
rtoes -1.13997
lfemur 109.886 173.08 176.215
ltibia 13.7122
lfoot -10.6634 11.2557
ltoes 41.473
559
root 12.6509 21.5941 2.52894 -83.635 -5.50363 -178.587
lowerback 29.0671 0.969745 -2.12826
upperback 6.91588 -0.342393 -1.13288
thorax -8.25677 -0.407614 0.1218
lowerneck 0.263706 -0.449722 -5.42826
upperneck -23.0893 -0.387517 7.25209
head -7.02662 -0.987657 3.40457
rclavicle -1.18277e-014 -1.22501e-014
rhumerus 52.7053 1.94662 -55.5391
rradius 29.6249
rwrist -18.7863
rhand -31.2045 -40.7117
rfingers 7.12502
rthumb -4.48062 -430.644
lclavicle -1.18277e-014 -1.22501e-014
lhumerus 55.8509 -3.72257 26.7409
lradius 22.9466
lwrist 8.17149
lhand -40.8858 -26.2382
lfingers 7.12502
lthumb -13.8216 3.28262
rfemur -73.7514 -2.39148 11.852
rtibia 21.7351
rfoot -6.8984 -20.7263
rtoes -2.18369
lfemur 106.563 171.921 176.294
ltibia 17.2683
lfoot -10.0923 10.6556
ltoes 40.1951
560
root 12.6494 21.7756 2.35804 -80.4026 -5.42235 -178.596
lowerback 27.9155 1.01544 -2.32815
upperback 6.49875 -0.211867 -1.25226
thorax -8.16428 -0.307169 0.0543218
lowerneck 0.93447 -0.526723 -5.24295
upperneck -24.8635 -0.472742 7.26178
head -7.729 -1.14307 3.45389
rclavicle -2.22639e-014 -7.60351e-015
rhumerus 54.9885 -0.413185 -55.1301
rradius 29.7212
rwrist -17.545
rhand -31.3151 -40.9371
rfingers 7.12502
rthumb -4.58736 -430.867
lclavicle -2.22639e-014 -7.60351e-015
lhumerus 57.6128 -0.997294 27.7684
lradius 22.9965
lwrist 7.65062
lhand -41.2849 -26.4121
lfingers 7.12502
lthumb -14.2061 3.08211
rfemur -77.4534 -3.60997 12.9336
rtibia 26.6439
rfoot -5.59524 -18.1509
rtoes -2.72086
lfemur 102.809 170.289 174.202
ltibia 21.7268
lfoot -7.3303 9.00514
ltoes 38.5512
